<svg xmlns="http://www.w3.org/2000/svg" xmlns:xlink="http://www.w3.org/1999/xlink" fill="none" version="1.1" width="16" height="18" viewBox="0 0 16 18"><g><path d="M7.5,12Q7.40625,12,7.3125,11.9609Q7.21875,11.9219,7.14062,11.8594L3.14062,7.85938Q3,7.70312,3,7.5Q3,7.29688,3.14062,7.14062Q3.29688,7,3.5,7Q3.70312,7,3.85938,7.14062L7.5,10.7969L11.1406,7.14062Q11.2969,7,11.5,7Q11.7031,7,11.8594,7.14062Q12,7.29688,12,7.5Q12,7.70312,11.8594,7.85938L7.85938,11.8594Q7.78125,11.9219,7.6875,11.9609Q7.59375,12,7.5,12Z" fill="#222222" fill-opacity="1"/></g></svg>