<svg xmlns="http://www.w3.org/2000/svg" xmlns:xlink="http://www.w3.org/1999/xlink" fill="none" version="1.1" width="19.25" height="16.5" viewBox="0 0 19.25 16.5"><path d="M14.201172,2.75L12.783203,0.6015625Q12.589844,0.32226562,12.289062,0.16113281Q11.988281,0,11.644531,0L7.6054688,0Q7.2617188,0,6.9609375,0.16113281Q6.6601562,0.32226562,6.4667969,0.6015625L5.0488281,2.75L1.375,2.75Q0.79492188,2.75,0.39746094,3.1474609Q0,3.5449219,0,4.125L0,15.125Q0,15.705078,0.39746094,16.102539Q0.79492188,16.5,1.375,16.5L17.875,16.5Q18.455078,16.5,18.852539,16.102539Q19.25,15.705078,19.25,15.125L19.25,4.125Q19.25,3.5449219,18.852539,3.1474609Q18.455078,2.75,17.875,2.75L14.201172,2.75ZM11.644531,1.375L13.470703,4.125L17.875,4.125L17.875,15.125L1.375,15.125L1.375,4.125L5.7792969,4.125L7.6054688,1.375L11.644531,1.375ZM13.75,8.9375Q13.75,10.054688,13.191406,11Q12.632812,11.945312,11.6875,12.503906Q10.742188,13.0625,9.625,13.0625Q8.5078125,13.0625,7.5625,12.503906Q6.6171875,11.945312,6.0585938,11Q5.5,10.054688,5.5,8.9375Q5.5,7.8203125,6.0585938,6.875Q6.6171875,5.9296875,7.5625,5.3710938Q8.5078125,4.8125,9.625,4.8125Q10.742188,4.8125,11.6875,5.3710938Q12.632812,5.9296875,13.191406,6.875Q13.75,7.8203125,13.75,8.9375ZM12.375,8.9375Q12.375,8.1855469,12.009766,7.5517578Q11.644531,6.9179688,11.010742,6.5527344Q10.376953,6.1875,9.625,6.1875Q8.8730469,6.1875,8.2392578,6.5527344Q7.6054688,6.9179688,7.2402344,7.5517578Q6.875,8.1855469,6.875,8.9375Q6.875,9.6894531,7.2402344,10.323242Q7.6054688,10.957031,8.2392578,11.322266Q8.8730469,11.6875,9.625,11.6875Q10.376953,11.6875,11.010742,11.322266Q11.644531,10.957031,12.009766,10.323242Q12.375,9.6894531,12.375,8.9375Z" fill="#888888" fill-opacity="1"/></svg>